<svg width="377" height="84" viewBox="0 0 377 84" fill="none" xmlns="http://www.w3.org/2000/svg">
<rect width="377" height="84" rx="20" fill="#F9FAFB"/>
<path d="M268 0H357C368.046 0 377 8.95431 377 20V64C377 75.0457 368.046 84 357 84H237L268 0Z" fill="#2B7FFF"/>
<path d="M300.125 41.625L299.25 49.5" stroke="white" stroke-linecap="round" stroke-linejoin="round"/>
<path d="M303.625 41.625L300.125 35.5" stroke="white" stroke-linecap="round" stroke-linejoin="round"/>
<path d="M288.75 41.625H306.25" stroke="white" stroke-linecap="round" stroke-linejoin="round"/>
<path d="M290.062 41.625L291.462 48.1C291.544 48.5012 291.764 48.8611 292.084 49.1169C292.404 49.3727 292.803 49.5083 293.212 49.5H301.787C302.197 49.5083 302.596 49.3727 302.916 49.1169C303.236 48.8611 303.456 48.5012 303.537 48.1L305.025 41.625" stroke="white" stroke-linecap="round" stroke-linejoin="round"/>
<path d="M290.938 45.5625H304.062" stroke="white" stroke-linecap="round" stroke-linejoin="round"/>
<path d="M291.375 41.625L294.875 35.5" stroke="white" stroke-linecap="round" stroke-linejoin="round"/>
<path d="M294.875 41.625L295.75 49.5" stroke="white" stroke-linecap="round" stroke-linejoin="round"/>
<path d="M321.203 43.7676C321.203 43.6152 321.18 43.4785 321.133 43.3574C321.09 43.2324 321.008 43.1191 320.887 43.0176C320.766 42.9121 320.596 42.8086 320.377 42.707C320.158 42.6055 319.875 42.5 319.527 42.3906C319.141 42.2656 318.773 42.125 318.426 41.9688C318.082 41.8125 317.777 41.6309 317.512 41.4238C317.25 41.2129 317.043 40.9688 316.891 40.6914C316.742 40.4141 316.668 40.0918 316.668 39.7246C316.668 39.3691 316.746 39.0469 316.902 38.7578C317.059 38.4648 317.277 38.2148 317.559 38.0078C317.84 37.7969 318.172 37.6348 318.555 37.5215C318.941 37.4082 319.365 37.3516 319.826 37.3516C320.455 37.3516 321.004 37.4648 321.473 37.6914C321.941 37.918 322.305 38.2285 322.562 38.623C322.824 39.0176 322.955 39.4688 322.955 39.9766H321.209C321.209 39.7266 321.156 39.5078 321.051 39.3203C320.949 39.1289 320.793 38.9785 320.582 38.8691C320.375 38.7598 320.113 38.7051 319.797 38.7051C319.492 38.7051 319.238 38.752 319.035 38.8457C318.832 38.9355 318.68 39.0586 318.578 39.2148C318.477 39.3672 318.426 39.5391 318.426 39.7305C318.426 39.875 318.461 40.0059 318.531 40.123C318.605 40.2402 318.715 40.3496 318.859 40.4512C319.004 40.5527 319.182 40.6484 319.393 40.7383C319.604 40.8281 319.848 40.916 320.125 41.002C320.59 41.1426 320.998 41.3008 321.35 41.4766C321.705 41.6523 322.002 41.8496 322.24 42.0684C322.479 42.2871 322.658 42.5352 322.779 42.8125C322.9 43.0898 322.961 43.4043 322.961 43.7559C322.961 44.127 322.889 44.459 322.744 44.752C322.6 45.0449 322.391 45.293 322.117 45.4961C321.844 45.6992 321.518 45.8535 321.139 45.959C320.76 46.0645 320.336 46.1172 319.867 46.1172C319.445 46.1172 319.029 46.0625 318.619 45.9531C318.209 45.8398 317.836 45.6699 317.5 45.4434C317.168 45.2168 316.902 44.9277 316.703 44.5762C316.504 44.2246 316.404 43.8086 316.404 43.3281H318.168C318.168 43.5938 318.209 43.8184 318.291 44.002C318.373 44.1855 318.488 44.334 318.637 44.4473C318.789 44.5605 318.969 44.6426 319.176 44.6934C319.387 44.7441 319.617 44.7695 319.867 44.7695C320.172 44.7695 320.422 44.7266 320.617 44.6406C320.816 44.5547 320.963 44.4355 321.057 44.2832C321.154 44.1309 321.203 43.959 321.203 43.7676ZM325.947 37V46H324.26V37H325.947ZM325.707 42.6074H325.244C325.248 42.166 325.307 41.7598 325.42 41.3887C325.533 41.0137 325.695 40.6895 325.906 40.416C326.117 40.1387 326.369 39.9238 326.662 39.7715C326.959 39.6191 327.287 39.543 327.646 39.543C327.959 39.543 328.242 39.5879 328.496 39.6777C328.754 39.7637 328.975 39.9043 329.158 40.0996C329.346 40.291 329.49 40.543 329.592 40.8555C329.693 41.168 329.744 41.5469 329.744 41.9922V46H328.045V41.9805C328.045 41.6992 328.004 41.4785 327.922 41.3184C327.844 41.1543 327.729 41.0391 327.576 40.9727C327.428 40.9023 327.244 40.8672 327.025 40.8672C326.783 40.8672 326.576 40.9121 326.404 41.002C326.236 41.0918 326.102 41.2168 326 41.377C325.898 41.5332 325.824 41.7168 325.777 41.9277C325.73 42.1387 325.707 42.3652 325.707 42.6074ZM331.008 42.8945V42.7715C331.008 42.3066 331.074 41.8789 331.207 41.4883C331.34 41.0938 331.533 40.752 331.787 40.4629C332.041 40.1738 332.354 39.9492 332.725 39.7891C333.096 39.625 333.521 39.543 334.002 39.543C334.482 39.543 334.91 39.625 335.285 39.7891C335.66 39.9492 335.975 40.1738 336.229 40.4629C336.486 40.752 336.682 41.0938 336.814 41.4883C336.947 41.8789 337.014 42.3066 337.014 42.7715V42.8945C337.014 43.3555 336.947 43.7832 336.814 44.1777C336.682 44.5684 336.486 44.9102 336.229 45.2031C335.975 45.4922 335.662 45.7168 335.291 45.877C334.92 46.0371 334.494 46.1172 334.014 46.1172C333.533 46.1172 333.105 46.0371 332.73 45.877C332.359 45.7168 332.045 45.4922 331.787 45.2031C331.533 44.9102 331.34 44.5684 331.207 44.1777C331.074 43.7832 331.008 43.3555 331.008 42.8945ZM332.695 42.7715V42.8945C332.695 43.1602 332.719 43.4082 332.766 43.6387C332.812 43.8691 332.887 44.0723 332.988 44.248C333.094 44.4199 333.23 44.5547 333.398 44.6523C333.566 44.75 333.771 44.7988 334.014 44.7988C334.248 44.7988 334.449 44.75 334.617 44.6523C334.785 44.5547 334.92 44.4199 335.021 44.248C335.123 44.0723 335.197 43.8691 335.244 43.6387C335.295 43.4082 335.32 43.1602 335.32 42.8945V42.7715C335.32 42.5137 335.295 42.2715 335.244 42.0449C335.197 41.8145 335.121 41.6113 335.016 41.4355C334.914 41.2559 334.779 41.1152 334.611 41.0137C334.443 40.9121 334.24 40.8613 334.002 40.8613C333.764 40.8613 333.561 40.9121 333.393 41.0137C333.229 41.1152 333.094 41.2559 332.988 41.4355C332.887 41.6113 332.812 41.8145 332.766 42.0449C332.719 42.2715 332.695 42.5137 332.695 42.7715ZM339.988 40.8789V48.4375H338.301V39.6602H339.865L339.988 40.8789ZM344.002 42.7598V42.8828C344.002 43.3438 343.947 43.7715 343.838 44.166C343.732 44.5605 343.576 44.9043 343.369 45.1973C343.162 45.4863 342.904 45.7129 342.596 45.877C342.291 46.0371 341.939 46.1172 341.541 46.1172C341.154 46.1172 340.818 46.0391 340.533 45.8828C340.248 45.7266 340.008 45.5078 339.812 45.2266C339.621 44.9414 339.467 44.6113 339.35 44.2363C339.232 43.8613 339.143 43.459 339.08 43.0293V42.707C339.143 42.2461 339.232 41.8242 339.35 41.4414C339.467 41.0547 339.621 40.7207 339.812 40.4395C340.008 40.1543 340.246 39.9336 340.527 39.7773C340.812 39.6211 341.146 39.543 341.529 39.543C341.932 39.543 342.285 39.6191 342.59 39.7715C342.898 39.9238 343.156 40.1426 343.363 40.4277C343.574 40.7129 343.732 41.0527 343.838 41.4473C343.947 41.8418 344.002 42.2793 344.002 42.7598ZM342.309 42.8828V42.7598C342.309 42.4902 342.285 42.2422 342.238 42.0156C342.195 41.7852 342.125 41.584 342.027 41.4121C341.934 41.2402 341.809 41.1074 341.652 41.0137C341.5 40.916 341.314 40.8672 341.096 40.8672C340.865 40.8672 340.668 40.9043 340.504 40.9785C340.344 41.0527 340.213 41.1602 340.111 41.3008C340.01 41.4414 339.934 41.6094 339.883 41.8047C339.832 42 339.801 42.2207 339.789 42.4668V43.2812C339.809 43.5703 339.863 43.8301 339.953 44.0605C340.043 44.2871 340.182 44.4668 340.369 44.5996C340.557 44.7324 340.803 44.7988 341.107 44.7988C341.33 44.7988 341.518 44.75 341.67 44.6523C341.822 44.5508 341.945 44.4121 342.039 44.2363C342.137 44.0605 342.205 43.8574 342.244 43.627C342.287 43.3965 342.309 43.1484 342.309 42.8828Z" fill="white"/>
<rect width="100" height="84" rx="20" fill="black"/>
<path fill-rule="evenodd" clip-rule="evenodd" d="M0 20C0 8.9543 8.9543 0 20 0H269L238.5 84H57.2416L61.2156 82.2823L88.1634 70.635C90.6923 69.542 92.6834 67.4891 93.6987 64.928C94.714 62.3669 94.6703 59.5074 93.5773 56.9785L90.2495 49.2792C89.8113 48.2653 88.6341 47.7986 87.6201 48.2368C85.0441 49.3503 82.1312 49.3948 79.5223 48.3605C76.9134 47.3263 74.8223 45.298 73.7088 42.7219C72.5954 40.1458 72.5509 37.2329 73.5851 34.6241C74.6194 32.0152 76.6477 29.924 79.2237 28.8106C80.2377 28.3723 80.7043 27.1951 80.2661 26.1812L76.9383 18.4819C75.8453 15.953 73.7924 13.9619 71.2313 12.9466C68.6702 11.9313 65.8107 11.975 63.2818 13.068L36.3522 24.7075L36.334 24.7153L36.3159 24.7232L1.68723 39.6904C1.09326 39.9471 0.528961 40.2568 0 40.6135V20ZM58.9301 71.9536L61.4645 77.8171L86.5764 66.9633C88.1315 66.2911 89.3559 65.0288 89.9802 63.4539C90.6046 61.879 90.5777 60.1206 89.9056 58.5655L87.3166 52.5756C84.2731 53.4192 81.0177 53.2562 78.0482 52.079C74.4531 50.6537 71.5714 47.8588 70.0371 44.3089C68.5028 40.759 68.4415 36.745 69.8667 33.1499C71.0439 30.1804 73.1557 27.6976 75.8556 26.0588L73.2666 20.0689C72.5945 18.5138 71.3321 17.2894 69.7572 16.6651C68.1823 16.0407 66.4239 16.0676 64.8688 16.7397L39.7569 27.5936L42.2912 33.4569C42.7294 34.4709 42.2627 35.6481 41.2488 36.0863C40.2349 36.5245 39.0577 36.0578 38.6195 35.0439L36.0852 29.1805L3.27422 43.3621C1.82045 43.9904 0.655689 45.1346 0 46.5677V51.887L2.53401 57.7498C5.57755 56.9062 8.83291 57.0692 11.8025 58.2464C15.3975 59.6716 18.2792 62.4666 19.8135 66.0165C21.3479 69.5664 21.4092 73.5804 19.9839 77.1754C18.9928 79.6756 17.3392 81.8307 15.2299 83.4276C16.7585 83.8017 18.3561 84 20 84H47.1596L57.7928 79.4041L55.2584 73.5406C54.8202 72.5267 55.2869 71.3495 56.3008 70.9112C57.3147 70.473 58.4919 70.9397 58.9301 71.9536ZM2.23049 62.0885C1.44521 62.4279 0.561999 62.2245 0 61.6445V64C0 71.5963 4.23497 78.2035 10.4727 81.5893C10.5226 81.5625 10.574 81.5377 10.6269 81.5148C13.203 80.4014 15.2312 78.3102 16.2655 75.7013C17.2997 73.0924 17.2553 70.1795 16.1418 67.6035C15.0284 65.0274 12.9372 62.9991 10.3283 61.9649C7.71945 60.9306 4.80657 60.9751 2.23049 62.0885ZM48.9469 48.8555C48.5086 47.8415 47.3314 47.3749 46.3175 47.8131C45.3036 48.2513 44.8369 49.4285 45.2752 50.4425L48.603 58.1418C49.0412 59.1557 50.2184 59.6224 51.2323 59.1841C52.2462 58.7459 52.7129 57.5687 52.2747 56.5548L48.9469 48.8555Z" fill="url(#paint0_linear_290_668)"/>
<path d="M109.857 26.6699H111.361C111.843 26.6699 112.24 26.5885 112.553 26.4258C112.865 26.2565 113.096 26.0221 113.246 25.7227C113.402 25.4167 113.48 25.0618 113.48 24.6582C113.48 24.2936 113.409 23.9714 113.266 23.6914C113.129 23.4049 112.917 23.1836 112.631 23.0273C112.344 22.8646 111.983 22.7832 111.547 22.7832C111.202 22.7832 110.883 22.8516 110.59 22.9883C110.297 23.125 110.062 23.3171 109.887 23.5645C109.711 23.8118 109.623 24.1113 109.623 24.4629H106.801C106.801 23.6816 107.009 23.0013 107.426 22.4219C107.849 21.8424 108.415 21.39 109.125 21.0645C109.835 20.7389 110.616 20.5762 111.469 20.5762C112.432 20.5762 113.275 20.7324 113.998 21.0449C114.721 21.3509 115.284 21.8034 115.688 22.4023C116.091 23.0013 116.293 23.7435 116.293 24.6289C116.293 25.0781 116.189 25.5143 115.98 25.9375C115.772 26.3542 115.473 26.7318 115.082 27.0703C114.698 27.4023 114.229 27.6693 113.676 27.8711C113.122 28.0664 112.501 28.1641 111.811 28.1641H109.857V26.6699ZM109.857 28.8086V27.3535H111.811C112.585 27.3535 113.266 27.4414 113.852 27.6172C114.438 27.793 114.929 28.0469 115.326 28.3789C115.723 28.7044 116.023 29.0918 116.225 29.541C116.426 29.9837 116.527 30.4753 116.527 31.0156C116.527 31.6797 116.4 32.2721 116.146 32.793C115.893 33.3073 115.535 33.7435 115.072 34.1016C114.617 34.4596 114.083 34.7331 113.471 34.9219C112.859 35.1042 112.191 35.1953 111.469 35.1953C110.87 35.1953 110.281 35.1139 109.701 34.9512C109.128 34.7819 108.607 34.5312 108.139 34.1992C107.676 33.8607 107.305 33.4375 107.025 32.9297C106.752 32.4154 106.615 31.8066 106.615 31.1035H109.438C109.438 31.4681 109.529 31.7936 109.711 32.0801C109.893 32.3665 110.144 32.5911 110.463 32.7539C110.788 32.9167 111.15 32.998 111.547 32.998C111.996 32.998 112.38 32.9167 112.699 32.7539C113.025 32.5846 113.272 32.3503 113.441 32.0508C113.617 31.7448 113.705 31.39 113.705 30.9863C113.705 30.4655 113.611 30.0488 113.422 29.7363C113.233 29.4173 112.963 29.1829 112.611 29.0332C112.26 28.8835 111.843 28.8086 111.361 28.8086H109.857ZM127.781 26.6406V29.1016C127.781 30.1693 127.667 31.0905 127.439 31.8652C127.212 32.6335 126.883 33.265 126.453 33.7598C126.03 34.248 125.525 34.6094 124.939 34.8438C124.354 35.0781 123.702 35.1953 122.986 35.1953C122.413 35.1953 121.88 35.1237 121.385 34.9805C120.89 34.8307 120.444 34.5996 120.047 34.2871C119.656 33.9746 119.318 33.5807 119.031 33.1055C118.751 32.6237 118.536 32.0508 118.387 31.3867C118.237 30.7227 118.162 29.9609 118.162 29.1016V26.6406C118.162 25.5729 118.276 24.6582 118.504 23.8965C118.738 23.1283 119.067 22.5 119.49 22.0117C119.92 21.5234 120.428 21.1654 121.014 20.9375C121.6 20.7031 122.251 20.5859 122.967 20.5859C123.54 20.5859 124.07 20.6608 124.559 20.8105C125.053 20.9538 125.499 21.1784 125.896 21.4844C126.294 21.7904 126.632 22.1842 126.912 22.666C127.192 23.1413 127.407 23.7109 127.557 24.375C127.706 25.0326 127.781 25.7878 127.781 26.6406ZM124.959 29.4727V26.2598C124.959 25.7454 124.93 25.2962 124.871 24.9121C124.819 24.528 124.738 24.2025 124.627 23.9355C124.516 23.6621 124.38 23.4408 124.217 23.2715C124.054 23.1022 123.868 22.9785 123.66 22.9004C123.452 22.8223 123.221 22.7832 122.967 22.7832C122.648 22.7832 122.365 22.8451 122.117 22.9688C121.876 23.0924 121.671 23.291 121.502 23.5645C121.333 23.8314 121.202 24.1895 121.111 24.6387C121.027 25.0814 120.984 25.6217 120.984 26.2598V29.4727C120.984 29.987 121.01 30.4395 121.062 30.8301C121.121 31.2207 121.206 31.556 121.316 31.8359C121.434 32.1094 121.57 32.334 121.727 32.5098C121.889 32.679 122.075 32.8027 122.283 32.8809C122.498 32.959 122.732 32.998 122.986 32.998C123.299 32.998 123.576 32.9362 123.816 32.8125C124.064 32.6823 124.272 32.4805 124.441 32.207C124.617 31.9271 124.747 31.5625 124.832 31.1133C124.917 30.6641 124.959 30.1172 124.959 29.4727ZM129.406 24.2676V23.5156C129.406 22.9753 129.523 22.4837 129.758 22.041C129.992 21.5983 130.337 21.2435 130.793 20.9766C131.249 20.7096 131.809 20.5762 132.473 20.5762C133.156 20.5762 133.726 20.7096 134.182 20.9766C134.644 21.2435 134.989 21.5983 135.217 22.041C135.451 22.4837 135.568 22.9753 135.568 23.5156V24.2676C135.568 24.7949 135.451 25.2799 135.217 25.7227C134.989 26.1654 134.647 26.5202 134.191 26.7871C133.736 27.054 133.169 27.1875 132.492 27.1875C131.822 27.1875 131.255 27.054 130.793 26.7871C130.337 26.5202 129.992 26.1654 129.758 25.7227C129.523 25.2799 129.406 24.7949 129.406 24.2676ZM131.271 23.5156V24.2676C131.271 24.4954 131.314 24.7135 131.398 24.9219C131.49 25.1237 131.626 25.2897 131.809 25.4199C131.997 25.5436 132.225 25.6055 132.492 25.6055C132.772 25.6055 133 25.5436 133.176 25.4199C133.352 25.2897 133.482 25.1237 133.566 24.9219C133.651 24.7135 133.693 24.4954 133.693 24.2676V23.5156C133.693 23.2747 133.648 23.0534 133.557 22.8516C133.472 22.6432 133.339 22.4772 133.156 22.3535C132.98 22.2233 132.753 22.1582 132.473 22.1582C132.212 22.1582 131.991 22.2233 131.809 22.3535C131.626 22.4772 131.49 22.6432 131.398 22.8516C131.314 23.0534 131.271 23.2747 131.271 23.5156ZM136.203 32.2656V31.5137C136.203 30.9798 136.32 30.4915 136.555 30.0488C136.796 29.6061 137.144 29.2513 137.6 28.9844C138.062 28.7174 138.628 28.584 139.299 28.584C139.976 28.584 140.542 28.7174 140.998 28.9844C141.454 29.2513 141.799 29.6061 142.033 30.0488C142.268 30.4915 142.385 30.9798 142.385 31.5137V32.2656C142.385 32.7995 142.268 33.2878 142.033 33.7305C141.805 34.1732 141.464 34.528 141.008 34.7949C140.552 35.0618 139.989 35.1953 139.318 35.1953C138.641 35.1953 138.072 35.0618 137.609 34.7949C137.147 34.528 136.796 34.1732 136.555 33.7305C136.32 33.2878 136.203 32.7995 136.203 32.2656ZM138.078 31.5137V32.2656C138.078 32.5 138.13 32.7214 138.234 32.9297C138.339 33.138 138.482 33.304 138.664 33.4277C138.853 33.5514 139.071 33.6133 139.318 33.6133C139.631 33.6133 139.875 33.5514 140.051 33.4277C140.227 33.304 140.347 33.138 140.412 32.9297C140.484 32.7214 140.52 32.5 140.52 32.2656V31.5137C140.52 31.2793 140.474 31.0612 140.383 30.8594C140.292 30.651 140.155 30.485 139.973 30.3613C139.797 30.2311 139.572 30.166 139.299 30.166C139.025 30.166 138.798 30.2311 138.615 30.3613C138.439 30.485 138.306 30.651 138.215 30.8594C138.124 31.0612 138.078 31.2793 138.078 31.5137ZM139.992 22.8125L133.049 33.9258L131.682 33.2031L138.625 22.0898L139.992 22.8125Z" fill="#2B7FFF"/>
<path d="M148.613 29.834V29.6094C148.613 28.8477 148.724 28.1413 148.945 27.4902C149.167 26.8327 149.486 26.263 149.902 25.7812C150.319 25.293 150.824 24.9154 151.416 24.6484C152.008 24.375 152.673 24.2383 153.408 24.2383C154.15 24.2383 154.818 24.375 155.41 24.6484C156.009 24.9154 156.517 25.293 156.934 25.7812C157.357 26.263 157.679 26.8327 157.9 27.4902C158.122 28.1413 158.232 28.8477 158.232 29.6094V29.834C158.232 30.5957 158.122 31.3021 157.9 31.9531C157.679 32.6042 157.357 33.1738 156.934 33.6621C156.517 34.1439 156.012 34.5215 155.42 34.7949C154.834 35.0618 154.17 35.1953 153.428 35.1953C152.686 35.1953 152.018 35.0618 151.426 34.7949C150.833 34.5215 150.326 34.1439 149.902 33.6621C149.486 33.1738 149.167 32.6042 148.945 31.9531C148.724 31.3021 148.613 30.5957 148.613 29.834ZM150.42 29.6094V29.834C150.42 30.3613 150.482 30.8594 150.605 31.3281C150.729 31.7904 150.915 32.2005 151.162 32.5586C151.416 32.9167 151.732 33.1999 152.109 33.4082C152.487 33.61 152.926 33.7109 153.428 33.7109C153.923 33.7109 154.355 33.61 154.727 33.4082C155.104 33.1999 155.417 32.9167 155.664 32.5586C155.911 32.2005 156.097 31.7904 156.221 31.3281C156.351 30.8594 156.416 30.3613 156.416 29.834V29.6094C156.416 29.0885 156.351 28.597 156.221 28.1348C156.097 27.666 155.908 27.2526 155.654 26.8945C155.407 26.5299 155.094 26.2435 154.717 26.0352C154.346 25.8268 153.91 25.7227 153.408 25.7227C152.913 25.7227 152.477 25.8268 152.1 26.0352C151.729 26.2435 151.416 26.5299 151.162 26.8945C150.915 27.2526 150.729 27.666 150.605 28.1348C150.482 28.597 150.42 29.0885 150.42 29.6094ZM162.055 26.6895V35H160.248V24.4336H161.957L162.055 26.6895ZM161.625 29.3164L160.873 29.2871C160.88 28.5645 160.987 27.8971 161.195 27.2852C161.404 26.6667 161.697 26.1296 162.074 25.6738C162.452 25.2181 162.901 24.8665 163.422 24.6191C163.949 24.3652 164.532 24.2383 165.17 24.2383C165.691 24.2383 166.16 24.3099 166.576 24.4531C166.993 24.5898 167.348 24.8112 167.641 25.1172C167.94 25.4232 168.168 25.8203 168.324 26.3086C168.48 26.7904 168.559 27.3796 168.559 28.0762V35H166.742V28.0566C166.742 27.5033 166.661 27.0605 166.498 26.7285C166.335 26.39 166.098 26.1458 165.785 25.9961C165.473 25.8398 165.089 25.7617 164.633 25.7617C164.184 25.7617 163.773 25.8561 163.402 26.0449C163.038 26.2337 162.722 26.4941 162.455 26.8262C162.195 27.1582 161.99 27.5391 161.84 27.9688C161.697 28.3919 161.625 28.8411 161.625 29.3164ZM107.65 40.7812H112.357C113.425 40.7812 114.327 40.944 115.062 41.2695C115.805 41.5951 116.368 42.0768 116.752 42.7148C117.143 43.3464 117.338 44.1243 117.338 45.0488C117.338 45.6999 117.204 46.2956 116.938 46.8359C116.677 47.3698 116.299 47.8255 115.805 48.2031C115.316 48.5742 114.73 48.8509 114.047 49.0332L113.52 49.2383H109.096L109.076 47.7051H112.416C113.093 47.7051 113.656 47.5879 114.105 47.3535C114.555 47.1126 114.893 46.7904 115.121 46.3867C115.349 45.9831 115.463 45.5371 115.463 45.0488C115.463 44.502 115.355 44.0234 115.141 43.6133C114.926 43.2031 114.587 42.8874 114.125 42.666C113.669 42.4382 113.08 42.3242 112.357 42.3242H109.535V55H107.65V40.7812ZM115.961 55L112.504 48.5547L114.467 48.5449L117.973 54.8828V55H115.961ZM125.682 53.1934V47.7539C125.682 47.3372 125.597 46.9759 125.428 46.6699C125.265 46.3574 125.018 46.1165 124.686 45.9473C124.354 45.778 123.943 45.6934 123.455 45.6934C122.999 45.6934 122.599 45.7715 122.254 45.9277C121.915 46.084 121.648 46.2891 121.453 46.543C121.264 46.7969 121.17 47.0703 121.17 47.3633H119.363C119.363 46.9857 119.461 46.6113 119.656 46.2402C119.852 45.8691 120.132 45.5339 120.496 45.2344C120.867 44.9284 121.31 44.6875 121.824 44.5117C122.345 44.3294 122.924 44.2383 123.562 44.2383C124.331 44.2383 125.008 44.3685 125.594 44.6289C126.186 44.8893 126.648 45.2832 126.98 45.8105C127.319 46.3314 127.488 46.9857 127.488 47.7734V52.6953C127.488 53.0469 127.518 53.4212 127.576 53.8184C127.641 54.2155 127.736 54.5573 127.859 54.8438V55H125.975C125.883 54.7917 125.812 54.515 125.76 54.1699C125.708 53.8184 125.682 53.4928 125.682 53.1934ZM125.994 48.5938L126.014 49.8633H124.188C123.673 49.8633 123.214 49.9056 122.811 49.9902C122.407 50.0684 122.068 50.1888 121.795 50.3516C121.521 50.5143 121.313 50.7194 121.17 50.9668C121.027 51.2077 120.955 51.4909 120.955 51.8164C120.955 52.1484 121.03 52.4512 121.18 52.7246C121.329 52.998 121.554 53.2161 121.854 53.3789C122.16 53.5352 122.534 53.6133 122.977 53.6133C123.53 53.6133 124.018 53.4961 124.441 53.2617C124.865 53.0273 125.2 52.7409 125.447 52.4023C125.701 52.0638 125.838 51.735 125.857 51.416L126.629 52.2852C126.583 52.5586 126.46 52.8613 126.258 53.1934C126.056 53.5254 125.786 53.8444 125.447 54.1504C125.115 54.4499 124.718 54.7005 124.256 54.9023C123.8 55.0977 123.286 55.1953 122.713 55.1953C121.997 55.1953 121.368 55.0553 120.828 54.7754C120.294 54.4954 119.878 54.1211 119.578 53.6523C119.285 53.1771 119.139 52.6465 119.139 52.0605C119.139 51.4941 119.249 50.9961 119.471 50.5664C119.692 50.1302 120.011 49.7689 120.428 49.4824C120.844 49.1895 121.346 48.9681 121.932 48.8184C122.518 48.6686 123.172 48.5938 123.895 48.5938H125.994ZM131.887 46.6895V55H130.08V44.4336H131.789L131.887 46.6895ZM131.457 49.3164L130.705 49.2871C130.712 48.5645 130.819 47.8971 131.027 47.2852C131.236 46.6667 131.529 46.1296 131.906 45.6738C132.284 45.2181 132.733 44.8665 133.254 44.6191C133.781 44.3652 134.364 44.2383 135.002 44.2383C135.523 44.2383 135.992 44.3099 136.408 44.4531C136.825 44.5898 137.18 44.8112 137.473 45.1172C137.772 45.4232 138 45.8203 138.156 46.3086C138.312 46.7904 138.391 47.3796 138.391 48.0762V55H136.574V48.0566C136.574 47.5033 136.493 47.0605 136.33 46.7285C136.167 46.39 135.93 46.1458 135.617 45.9961C135.305 45.8398 134.921 45.7617 134.465 45.7617C134.016 45.7617 133.605 45.8561 133.234 46.0449C132.87 46.2337 132.554 46.4941 132.287 46.8262C132.027 47.1582 131.822 47.5391 131.672 47.9688C131.529 48.3919 131.457 48.8411 131.457 49.3164ZM142.701 40V55H140.885V40H142.701ZM149.156 44.4336L144.547 49.3652L141.969 52.041L141.822 50.1172L143.668 47.9102L146.949 44.4336H149.156ZM147.506 55L143.736 49.9609L144.674 48.3496L149.635 55H147.506ZM154.961 55.1953C154.225 55.1953 153.558 55.0716 152.959 54.8242C152.367 54.5703 151.855 54.2155 151.426 53.7598C151.003 53.304 150.677 52.7637 150.449 52.1387C150.221 51.5137 150.107 50.8301 150.107 50.0879V49.6777C150.107 48.8184 150.234 48.0534 150.488 47.3828C150.742 46.7057 151.087 46.1328 151.523 45.6641C151.96 45.1953 152.454 44.8405 153.008 44.5996C153.561 44.3587 154.134 44.2383 154.727 44.2383C155.482 44.2383 156.133 44.3685 156.68 44.6289C157.233 44.8893 157.686 45.2539 158.037 45.7227C158.389 46.1849 158.649 46.7318 158.818 47.3633C158.988 47.9883 159.072 48.6719 159.072 49.4141V50.2246H151.182V48.75H157.266V48.6133C157.24 48.1445 157.142 47.6888 156.973 47.2461C156.81 46.8034 156.549 46.4388 156.191 46.1523C155.833 45.8659 155.345 45.7227 154.727 45.7227C154.316 45.7227 153.939 45.8105 153.594 45.9863C153.249 46.1556 152.952 46.4095 152.705 46.748C152.458 47.0866 152.266 47.5 152.129 47.9883C151.992 48.4766 151.924 49.0397 151.924 49.6777V50.0879C151.924 50.5892 151.992 51.0612 152.129 51.5039C152.272 51.9401 152.477 52.3242 152.744 52.6562C153.018 52.9883 153.346 53.2487 153.73 53.4375C154.121 53.6263 154.564 53.7207 155.059 53.7207C155.697 53.7207 156.237 53.5905 156.68 53.3301C157.122 53.0697 157.51 52.7214 157.842 52.2852L158.936 53.1543C158.708 53.4993 158.418 53.8281 158.066 54.1406C157.715 54.4531 157.282 54.707 156.768 54.9023C156.26 55.0977 155.658 55.1953 154.961 55.1953ZM167.592 52.9492V40H169.408V55H167.748L167.592 52.9492ZM160.482 49.834V49.6289C160.482 48.8216 160.58 48.0892 160.775 47.4316C160.977 46.7676 161.26 46.1979 161.625 45.7227C161.996 45.2474 162.436 44.8828 162.943 44.6289C163.458 44.3685 164.031 44.2383 164.662 44.2383C165.326 44.2383 165.906 44.3555 166.4 44.5898C166.902 44.8177 167.325 45.153 167.67 45.5957C168.021 46.0319 168.298 46.5592 168.5 47.1777C168.702 47.7962 168.842 48.4961 168.92 49.2773V50.1758C168.848 50.9505 168.708 51.6471 168.5 52.2656C168.298 52.8841 168.021 53.4115 167.67 53.8477C167.325 54.2839 166.902 54.6191 166.4 54.8535C165.899 55.0814 165.313 55.1953 164.643 55.1953C164.024 55.1953 163.458 55.0618 162.943 54.7949C162.436 54.528 161.996 54.1536 161.625 53.6719C161.26 53.1901 160.977 52.6237 160.775 51.9727C160.58 51.3151 160.482 50.6022 160.482 49.834ZM162.299 49.6289V49.834C162.299 50.3613 162.351 50.8561 162.455 51.3184C162.566 51.7806 162.735 52.1875 162.963 52.5391C163.191 52.8906 163.48 53.1673 163.832 53.3691C164.184 53.5645 164.604 53.6621 165.092 53.6621C165.691 53.6621 166.182 53.5352 166.566 53.2812C166.957 53.0273 167.27 52.6921 167.504 52.2754C167.738 51.8587 167.921 51.4062 168.051 50.918V48.5645C167.973 48.2064 167.859 47.8613 167.709 47.5293C167.566 47.1908 167.377 46.8913 167.143 46.6309C166.915 46.3639 166.632 46.1523 166.293 45.9961C165.961 45.8398 165.567 45.7617 165.111 45.7617C164.617 45.7617 164.19 45.8659 163.832 46.0742C163.48 46.276 163.191 46.556 162.963 46.9141C162.735 47.2656 162.566 47.6758 162.455 48.1445C162.351 48.6068 162.299 49.1016 162.299 49.6289ZM175.73 48.2129V49.6973H170.965V48.2129H175.73ZM182.775 40.7812V55H180.92V40.7812H182.775ZM187.346 40.7812V42.3242H176.359V40.7812H187.346ZM190.895 44.4336V55H189.078V44.4336H190.895ZM188.941 41.6309C188.941 41.3379 189.029 41.0905 189.205 40.8887C189.387 40.6868 189.654 40.5859 190.006 40.5859C190.351 40.5859 190.615 40.6868 190.797 40.8887C190.986 41.0905 191.08 41.3379 191.08 41.6309C191.08 41.9108 190.986 42.1517 190.797 42.3535C190.615 42.5488 190.351 42.6465 190.006 42.6465C189.654 42.6465 189.387 42.5488 189.205 42.3535C189.029 42.1517 188.941 41.9108 188.941 41.6309ZM197.773 53.7109C198.203 53.7109 198.6 53.623 198.965 53.4473C199.329 53.2715 199.629 53.0306 199.863 52.7246C200.098 52.4121 200.231 52.0573 200.264 51.6602H201.982C201.95 52.2852 201.738 52.8678 201.348 53.4082C200.964 53.9421 200.459 54.375 199.834 54.707C199.209 55.0326 198.522 55.1953 197.773 55.1953C196.979 55.1953 196.286 55.0553 195.693 54.7754C195.107 54.4954 194.619 54.1113 194.229 53.623C193.844 53.1348 193.555 52.5749 193.359 51.9434C193.171 51.3053 193.076 50.6315 193.076 49.9219V49.5117C193.076 48.8021 193.171 48.1315 193.359 47.5C193.555 46.862 193.844 46.2988 194.229 45.8105C194.619 45.3223 195.107 44.9382 195.693 44.6582C196.286 44.3783 196.979 44.2383 197.773 44.2383C198.6 44.2383 199.323 44.4076 199.941 44.7461C200.56 45.0781 201.045 45.5339 201.396 46.1133C201.755 46.6862 201.95 47.3372 201.982 48.0664H200.264C200.231 47.6302 200.107 47.2363 199.893 46.8848C199.684 46.5332 199.398 46.2533 199.033 46.0449C198.675 45.8301 198.255 45.7227 197.773 45.7227C197.22 45.7227 196.755 45.8333 196.377 46.0547C196.006 46.2695 195.71 46.5625 195.488 46.9336C195.273 47.2982 195.117 47.7051 195.02 48.1543C194.928 48.597 194.883 49.0495 194.883 49.5117V49.9219C194.883 50.3841 194.928 50.8398 195.02 51.2891C195.111 51.7383 195.264 52.1452 195.479 52.5098C195.7 52.8743 195.996 53.1673 196.367 53.3887C196.745 53.6035 197.214 53.7109 197.773 53.7109ZM205.58 40V55H203.764V40H205.58ZM212.035 44.4336L207.426 49.3652L204.848 52.041L204.701 50.1172L206.547 47.9102L209.828 44.4336H212.035ZM210.385 55L206.615 49.9609L207.553 48.3496L212.514 55H210.385ZM217.84 55.1953C217.104 55.1953 216.437 55.0716 215.838 54.8242C215.245 54.5703 214.734 54.2155 214.305 53.7598C213.882 53.304 213.556 52.7637 213.328 52.1387C213.1 51.5137 212.986 50.8301 212.986 50.0879V49.6777C212.986 48.8184 213.113 48.0534 213.367 47.3828C213.621 46.7057 213.966 46.1328 214.402 45.6641C214.839 45.1953 215.333 44.8405 215.887 44.5996C216.44 44.3587 217.013 44.2383 217.605 44.2383C218.361 44.2383 219.012 44.3685 219.559 44.6289C220.112 44.8893 220.564 45.2539 220.916 45.7227C221.268 46.1849 221.528 46.7318 221.697 47.3633C221.867 47.9883 221.951 48.6719 221.951 49.4141V50.2246H214.061V48.75H220.145V48.6133C220.118 48.1445 220.021 47.6888 219.852 47.2461C219.689 46.8034 219.428 46.4388 219.07 46.1523C218.712 45.8659 218.224 45.7227 217.605 45.7227C217.195 45.7227 216.818 45.8105 216.473 45.9863C216.128 46.1556 215.831 46.4095 215.584 46.748C215.337 47.0866 215.145 47.5 215.008 47.9883C214.871 48.4766 214.803 49.0397 214.803 49.6777V50.0879C214.803 50.5892 214.871 51.0612 215.008 51.5039C215.151 51.9401 215.356 52.3242 215.623 52.6562C215.896 52.9883 216.225 53.2487 216.609 53.4375C217 53.6263 217.443 53.7207 217.938 53.7207C218.576 53.7207 219.116 53.5905 219.559 53.3301C220.001 53.0697 220.389 52.7214 220.721 52.2852L221.814 53.1543C221.587 53.4993 221.297 53.8281 220.945 54.1406C220.594 54.4531 220.161 54.707 219.646 54.9023C219.139 55.0977 218.536 55.1953 217.84 55.1953ZM228.234 44.4336V45.8203H222.521V44.4336H228.234ZM224.455 41.8652H226.262V52.3828C226.262 52.7409 226.317 53.0111 226.428 53.1934C226.538 53.3757 226.682 53.4961 226.857 53.5547C227.033 53.6133 227.222 53.6426 227.424 53.6426C227.574 53.6426 227.73 53.6296 227.893 53.6035C228.062 53.571 228.189 53.5449 228.273 53.5254L228.283 55C228.14 55.0456 227.951 55.0879 227.717 55.127C227.489 55.1725 227.212 55.1953 226.887 55.1953C226.444 55.1953 226.037 55.1074 225.666 54.9316C225.295 54.7559 224.999 54.4629 224.777 54.0527C224.562 53.6361 224.455 53.0762 224.455 52.373V41.8652ZM236.256 52.1973C236.256 51.9368 236.197 51.696 236.08 51.4746C235.969 51.2467 235.738 51.0417 235.387 50.8594C235.042 50.6706 234.521 50.5078 233.824 50.3711C233.238 50.2474 232.708 50.1009 232.232 49.9316C231.764 49.7624 231.363 49.5573 231.031 49.3164C230.706 49.0755 230.455 48.7923 230.279 48.4668C230.104 48.1413 230.016 47.7604 230.016 47.3242C230.016 46.9076 230.107 46.5137 230.289 46.1426C230.478 45.7715 230.742 45.4427 231.08 45.1562C231.425 44.8698 231.839 44.6452 232.32 44.4824C232.802 44.3197 233.339 44.2383 233.932 44.2383C234.778 44.2383 235.501 44.388 236.1 44.6875C236.699 44.987 237.158 45.3874 237.477 45.8887C237.796 46.3835 237.955 46.9336 237.955 47.5391H236.148C236.148 47.2461 236.061 46.9629 235.885 46.6895C235.715 46.4095 235.465 46.1784 235.133 45.9961C234.807 45.8138 234.407 45.7227 233.932 45.7227C233.43 45.7227 233.023 45.8008 232.711 45.957C232.405 46.1068 232.18 46.2988 232.037 46.5332C231.9 46.7676 231.832 47.015 231.832 47.2754C231.832 47.4707 231.865 47.6465 231.93 47.8027C232.001 47.9525 232.125 48.0924 232.301 48.2227C232.477 48.3464 232.724 48.4635 233.043 48.5742C233.362 48.6849 233.769 48.7956 234.264 48.9062C235.13 49.1016 235.842 49.3359 236.402 49.6094C236.962 49.8828 237.379 50.2181 237.652 50.6152C237.926 51.0124 238.062 51.4941 238.062 52.0605C238.062 52.5228 237.965 52.946 237.77 53.3301C237.581 53.7142 237.304 54.0462 236.939 54.3262C236.581 54.5996 236.152 54.8145 235.65 54.9707C235.156 55.1204 234.599 55.1953 233.98 55.1953C233.049 55.1953 232.262 55.0293 231.617 54.6973C230.973 54.3652 230.484 53.9355 230.152 53.4082C229.82 52.8809 229.654 52.3242 229.654 51.7383H231.471C231.497 52.2331 231.64 52.627 231.9 52.9199C232.161 53.2064 232.48 53.4115 232.857 53.5352C233.235 53.6523 233.609 53.7109 233.98 53.7109C234.475 53.7109 234.889 53.6458 235.221 53.5156C235.559 53.3854 235.816 53.2064 235.992 52.9785C236.168 52.7507 236.256 52.4902 236.256 52.1973Z" fill="black"/>
<defs>
<linearGradient id="paint0_linear_290_668" x1="0" y1="42" x2="269" y2="42" gradientUnits="userSpaceOnUse">
<stop stop-color="#EFF6FF"/>
<stop offset="1" stop-color="#CAE2FF"/>
</linearGradient>
</defs>
</svg>
