<svg width="377" height="84" viewBox="0 0 377 84" fill="none" xmlns="http://www.w3.org/2000/svg">
<rect width="377" height="84" rx="20" fill="#F9FAFB"/>
<path d="M268 0H357C368.046 0 377 8.95431 377 20V64C377 75.0457 368.046 84 357 84H237L268 0Z" fill="#2B7FFF"/>
<path d="M300.125 41.625L299.25 49.5" stroke="white" stroke-linecap="round" stroke-linejoin="round"/>
<path d="M303.625 41.625L300.125 35.5" stroke="white" stroke-linecap="round" stroke-linejoin="round"/>
<path d="M288.75 41.625H306.25" stroke="white" stroke-linecap="round" stroke-linejoin="round"/>
<path d="M290.062 41.625L291.462 48.1C291.544 48.5012 291.764 48.8611 292.084 49.1169C292.404 49.3727 292.803 49.5083 293.212 49.5H301.787C302.197 49.5083 302.596 49.3727 302.916 49.1169C303.236 48.8611 303.456 48.5012 303.537 48.1L305.025 41.625" stroke="white" stroke-linecap="round" stroke-linejoin="round"/>
<path d="M290.938 45.5625H304.062" stroke="white" stroke-linecap="round" stroke-linejoin="round"/>
<path d="M291.375 41.625L294.875 35.5" stroke="white" stroke-linecap="round" stroke-linejoin="round"/>
<path d="M294.875 41.625L295.75 49.5" stroke="white" stroke-linecap="round" stroke-linejoin="round"/>
<path d="M321.203 43.7676C321.203 43.6152 321.18 43.4785 321.133 43.3574C321.09 43.2324 321.008 43.1191 320.887 43.0176C320.766 42.9121 320.596 42.8086 320.377 42.707C320.158 42.6055 319.875 42.5 319.527 42.3906C319.141 42.2656 318.773 42.125 318.426 41.9688C318.082 41.8125 317.777 41.6309 317.512 41.4238C317.25 41.2129 317.043 40.9688 316.891 40.6914C316.742 40.4141 316.668 40.0918 316.668 39.7246C316.668 39.3691 316.746 39.0469 316.902 38.7578C317.059 38.4648 317.277 38.2148 317.559 38.0078C317.84 37.7969 318.172 37.6348 318.555 37.5215C318.941 37.4082 319.365 37.3516 319.826 37.3516C320.455 37.3516 321.004 37.4648 321.473 37.6914C321.941 37.918 322.305 38.2285 322.562 38.623C322.824 39.0176 322.955 39.4688 322.955 39.9766H321.209C321.209 39.7266 321.156 39.5078 321.051 39.3203C320.949 39.1289 320.793 38.9785 320.582 38.8691C320.375 38.7598 320.113 38.7051 319.797 38.7051C319.492 38.7051 319.238 38.752 319.035 38.8457C318.832 38.9355 318.68 39.0586 318.578 39.2148C318.477 39.3672 318.426 39.5391 318.426 39.7305C318.426 39.875 318.461 40.0059 318.531 40.123C318.605 40.2402 318.715 40.3496 318.859 40.4512C319.004 40.5527 319.182 40.6484 319.393 40.7383C319.604 40.8281 319.848 40.916 320.125 41.002C320.59 41.1426 320.998 41.3008 321.35 41.4766C321.705 41.6523 322.002 41.8496 322.24 42.0684C322.479 42.2871 322.658 42.5352 322.779 42.8125C322.9 43.0898 322.961 43.4043 322.961 43.7559C322.961 44.127 322.889 44.459 322.744 44.752C322.6 45.0449 322.391 45.293 322.117 45.4961C321.844 45.6992 321.518 45.8535 321.139 45.959C320.76 46.0645 320.336 46.1172 319.867 46.1172C319.445 46.1172 319.029 46.0625 318.619 45.9531C318.209 45.8398 317.836 45.6699 317.5 45.4434C317.168 45.2168 316.902 44.9277 316.703 44.5762C316.504 44.2246 316.404 43.8086 316.404 43.3281H318.168C318.168 43.5938 318.209 43.8184 318.291 44.002C318.373 44.1855 318.488 44.334 318.637 44.4473C318.789 44.5605 318.969 44.6426 319.176 44.6934C319.387 44.7441 319.617 44.7695 319.867 44.7695C320.172 44.7695 320.422 44.7266 320.617 44.6406C320.816 44.5547 320.963 44.4355 321.057 44.2832C321.154 44.1309 321.203 43.959 321.203 43.7676ZM325.947 37V46H324.26V37H325.947ZM325.707 42.6074H325.244C325.248 42.166 325.307 41.7598 325.42 41.3887C325.533 41.0137 325.695 40.6895 325.906 40.416C326.117 40.1387 326.369 39.9238 326.662 39.7715C326.959 39.6191 327.287 39.543 327.646 39.543C327.959 39.543 328.242 39.5879 328.496 39.6777C328.754 39.7637 328.975 39.9043 329.158 40.0996C329.346 40.291 329.49 40.543 329.592 40.8555C329.693 41.168 329.744 41.5469 329.744 41.9922V46H328.045V41.9805C328.045 41.6992 328.004 41.4785 327.922 41.3184C327.844 41.1543 327.729 41.0391 327.576 40.9727C327.428 40.9023 327.244 40.8672 327.025 40.8672C326.783 40.8672 326.576 40.9121 326.404 41.002C326.236 41.0918 326.102 41.2168 326 41.377C325.898 41.5332 325.824 41.7168 325.777 41.9277C325.73 42.1387 325.707 42.3652 325.707 42.6074ZM331.008 42.8945V42.7715C331.008 42.3066 331.074 41.8789 331.207 41.4883C331.34 41.0938 331.533 40.752 331.787 40.4629C332.041 40.1738 332.354 39.9492 332.725 39.7891C333.096 39.625 333.521 39.543 334.002 39.543C334.482 39.543 334.91 39.625 335.285 39.7891C335.66 39.9492 335.975 40.1738 336.229 40.4629C336.486 40.752 336.682 41.0938 336.814 41.4883C336.947 41.8789 337.014 42.3066 337.014 42.7715V42.8945C337.014 43.3555 336.947 43.7832 336.814 44.1777C336.682 44.5684 336.486 44.9102 336.229 45.2031C335.975 45.4922 335.662 45.7168 335.291 45.877C334.92 46.0371 334.494 46.1172 334.014 46.1172C333.533 46.1172 333.105 46.0371 332.73 45.877C332.359 45.7168 332.045 45.4922 331.787 45.2031C331.533 44.9102 331.34 44.5684 331.207 44.1777C331.074 43.7832 331.008 43.3555 331.008 42.8945ZM332.695 42.7715V42.8945C332.695 43.1602 332.719 43.4082 332.766 43.6387C332.812 43.8691 332.887 44.0723 332.988 44.248C333.094 44.4199 333.23 44.5547 333.398 44.6523C333.566 44.75 333.771 44.7988 334.014 44.7988C334.248 44.7988 334.449 44.75 334.617 44.6523C334.785 44.5547 334.92 44.4199 335.021 44.248C335.123 44.0723 335.197 43.8691 335.244 43.6387C335.295 43.4082 335.32 43.1602 335.32 42.8945V42.7715C335.32 42.5137 335.295 42.2715 335.244 42.0449C335.197 41.8145 335.121 41.6113 335.016 41.4355C334.914 41.2559 334.779 41.1152 334.611 41.0137C334.443 40.9121 334.24 40.8613 334.002 40.8613C333.764 40.8613 333.561 40.9121 333.393 41.0137C333.229 41.1152 333.094 41.2559 332.988 41.4355C332.887 41.6113 332.812 41.8145 332.766 42.0449C332.719 42.2715 332.695 42.5137 332.695 42.7715ZM339.988 40.8789V48.4375H338.301V39.6602H339.865L339.988 40.8789ZM344.002 42.7598V42.8828C344.002 43.3438 343.947 43.7715 343.838 44.166C343.732 44.5605 343.576 44.9043 343.369 45.1973C343.162 45.4863 342.904 45.7129 342.596 45.877C342.291 46.0371 341.939 46.1172 341.541 46.1172C341.154 46.1172 340.818 46.0391 340.533 45.8828C340.248 45.7266 340.008 45.5078 339.812 45.2266C339.621 44.9414 339.467 44.6113 339.35 44.2363C339.232 43.8613 339.143 43.459 339.08 43.0293V42.707C339.143 42.2461 339.232 41.8242 339.35 41.4414C339.467 41.0547 339.621 40.7207 339.812 40.4395C340.008 40.1543 340.246 39.9336 340.527 39.7773C340.812 39.6211 341.146 39.543 341.529 39.543C341.932 39.543 342.285 39.6191 342.59 39.7715C342.898 39.9238 343.156 40.1426 343.363 40.4277C343.574 40.7129 343.732 41.0527 343.838 41.4473C343.947 41.8418 344.002 42.2793 344.002 42.7598ZM342.309 42.8828V42.7598C342.309 42.4902 342.285 42.2422 342.238 42.0156C342.195 41.7852 342.125 41.584 342.027 41.4121C341.934 41.2402 341.809 41.1074 341.652 41.0137C341.5 40.916 341.314 40.8672 341.096 40.8672C340.865 40.8672 340.668 40.9043 340.504 40.9785C340.344 41.0527 340.213 41.1602 340.111 41.3008C340.01 41.4414 339.934 41.6094 339.883 41.8047C339.832 42 339.801 42.2207 339.789 42.4668V43.2812C339.809 43.5703 339.863 43.8301 339.953 44.0605C340.043 44.2871 340.182 44.4668 340.369 44.5996C340.557 44.7324 340.803 44.7988 341.107 44.7988C341.33 44.7988 341.518 44.75 341.67 44.6523C341.822 44.5508 341.945 44.4121 342.039 44.2363C342.137 44.0605 342.205 43.8574 342.244 43.627C342.287 43.3965 342.309 43.1484 342.309 42.8828Z" fill="white"/>
<rect width="100" height="84" rx="20" fill="black"/>
<path fill-rule="evenodd" clip-rule="evenodd" d="M0 20C0 8.9543 8.9543 0 20 0H269L238.5 84H57.2416L61.2156 82.2823L88.1634 70.635C90.6923 69.542 92.6834 67.4891 93.6987 64.928C94.714 62.3669 94.6703 59.5074 93.5773 56.9785L90.2495 49.2792C89.8113 48.2653 88.6341 47.7986 87.6201 48.2368C85.0441 49.3503 82.1312 49.3948 79.5223 48.3605C76.9134 47.3263 74.8223 45.298 73.7088 42.7219C72.5954 40.1458 72.5509 37.2329 73.5851 34.6241C74.6194 32.0152 76.6477 29.924 79.2237 28.8106C80.2377 28.3723 80.7043 27.1951 80.2661 26.1812L76.9383 18.4819C75.8453 15.953 73.7924 13.9619 71.2313 12.9466C68.6702 11.9313 65.8107 11.975 63.2818 13.068L36.3522 24.7075L36.334 24.7153L36.3159 24.7232L1.68723 39.6904C1.09326 39.9471 0.528961 40.2568 0 40.6135V20ZM58.9301 71.9536L61.4645 77.8171L86.5764 66.9633C88.1315 66.2911 89.3559 65.0288 89.9802 63.4539C90.6046 61.879 90.5777 60.1206 89.9056 58.5655L87.3166 52.5756C84.2731 53.4192 81.0177 53.2562 78.0482 52.079C74.4531 50.6537 71.5714 47.8588 70.0371 44.3089C68.5028 40.759 68.4415 36.745 69.8667 33.1499C71.0439 30.1804 73.1557 27.6976 75.8556 26.0588L73.2666 20.0689C72.5945 18.5138 71.3321 17.2894 69.7572 16.6651C68.1823 16.0407 66.4239 16.0676 64.8688 16.7397L39.7569 27.5936L42.2912 33.4569C42.7294 34.4709 42.2627 35.6481 41.2488 36.0863C40.2349 36.5245 39.0577 36.0578 38.6195 35.0439L36.0852 29.1805L3.27422 43.3621C1.82045 43.9904 0.655689 45.1346 0 46.5677V51.887L2.53401 57.7498C5.57755 56.9062 8.83291 57.0692 11.8025 58.2464C15.3975 59.6716 18.2792 62.4666 19.8135 66.0165C21.3479 69.5664 21.4092 73.5804 19.9839 77.1754C18.9928 79.6756 17.3392 81.8307 15.2299 83.4276C16.7585 83.8017 18.3561 84 20 84H47.1596L57.7928 79.4041L55.2584 73.5406C54.8202 72.5267 55.2869 71.3495 56.3008 70.9112C57.3147 70.473 58.4919 70.9397 58.9301 71.9536ZM2.23049 62.0885C1.44521 62.4279 0.561999 62.2245 0 61.6445V64C0 71.5963 4.23497 78.2035 10.4727 81.5893C10.5226 81.5625 10.574 81.5377 10.6269 81.5148C13.203 80.4014 15.2312 78.3102 16.2655 75.7013C17.2997 73.0924 17.2553 70.1795 16.1418 67.6035C15.0284 65.0274 12.9372 62.9991 10.3283 61.9649C7.71945 60.9306 4.80657 60.9751 2.23049 62.0885ZM48.9469 48.8555C48.5086 47.8415 47.3314 47.3749 46.3175 47.8131C45.3036 48.2513 44.8369 49.4285 45.2752 50.4425L48.603 58.1418C49.0412 59.1557 50.2184 59.6224 51.2323 59.1841C52.2462 58.7459 52.7129 57.5687 52.2747 56.5548L48.9469 48.8555Z" fill="url(#paint0_linear_290_668)"/>
<path d="M116.547 26.6406V29.1016C116.547 30.1693 116.433 31.0905 116.205 31.8652C115.977 32.6335 115.648 33.265 115.219 33.7598C114.796 34.248 114.291 34.6094 113.705 34.8438C113.119 35.0781 112.468 35.1953 111.752 35.1953C111.179 35.1953 110.645 35.1237 110.15 34.9805C109.656 34.8307 109.21 34.5996 108.812 34.2871C108.422 33.9746 108.083 33.5807 107.797 33.1055C107.517 32.6237 107.302 32.0508 107.152 31.3867C107.003 30.7227 106.928 29.9609 106.928 29.1016V26.6406C106.928 25.5729 107.042 24.6582 107.27 23.8965C107.504 23.1283 107.833 22.5 108.256 22.0117C108.686 21.5234 109.193 21.1654 109.779 20.9375C110.365 20.7031 111.016 20.5859 111.732 20.5859C112.305 20.5859 112.836 20.6608 113.324 20.8105C113.819 20.9538 114.265 21.1784 114.662 21.4844C115.059 21.7904 115.398 22.1842 115.678 22.666C115.958 23.1413 116.173 23.7109 116.322 24.375C116.472 25.0326 116.547 25.7878 116.547 26.6406ZM113.725 29.4727V26.2598C113.725 25.7454 113.695 25.2962 113.637 24.9121C113.585 24.528 113.503 24.2025 113.393 23.9355C113.282 23.6621 113.145 23.4408 112.982 23.2715C112.82 23.1022 112.634 22.9785 112.426 22.9004C112.217 22.8223 111.986 22.7832 111.732 22.7832C111.413 22.7832 111.13 22.8451 110.883 22.9688C110.642 23.0924 110.437 23.291 110.268 23.5645C110.098 23.8314 109.968 24.1895 109.877 24.6387C109.792 25.0814 109.75 25.6217 109.75 26.2598V29.4727C109.75 29.987 109.776 30.4395 109.828 30.8301C109.887 31.2207 109.971 31.556 110.082 31.8359C110.199 32.1094 110.336 32.334 110.492 32.5098C110.655 32.679 110.84 32.8027 111.049 32.8809C111.264 32.959 111.498 32.998 111.752 32.998C112.064 32.998 112.341 32.9362 112.582 32.8125C112.829 32.6823 113.038 32.4805 113.207 32.207C113.383 31.9271 113.513 31.5625 113.598 31.1133C113.682 30.6641 113.725 30.1172 113.725 29.4727ZM118.172 24.2676V23.5156C118.172 22.9753 118.289 22.4837 118.523 22.041C118.758 21.5983 119.103 21.2435 119.559 20.9766C120.014 20.7096 120.574 20.5762 121.238 20.5762C121.922 20.5762 122.492 20.7096 122.947 20.9766C123.41 21.2435 123.755 21.5983 123.982 22.041C124.217 22.4837 124.334 22.9753 124.334 23.5156V24.2676C124.334 24.7949 124.217 25.2799 123.982 25.7227C123.755 26.1654 123.413 26.5202 122.957 26.7871C122.501 27.054 121.935 27.1875 121.258 27.1875C120.587 27.1875 120.021 27.054 119.559 26.7871C119.103 26.5202 118.758 26.1654 118.523 25.7227C118.289 25.2799 118.172 24.7949 118.172 24.2676ZM120.037 23.5156V24.2676C120.037 24.4954 120.079 24.7135 120.164 24.9219C120.255 25.1237 120.392 25.2897 120.574 25.4199C120.763 25.5436 120.991 25.6055 121.258 25.6055C121.538 25.6055 121.766 25.5436 121.941 25.4199C122.117 25.2897 122.247 25.1237 122.332 24.9219C122.417 24.7135 122.459 24.4954 122.459 24.2676V23.5156C122.459 23.2747 122.413 23.0534 122.322 22.8516C122.238 22.6432 122.104 22.4772 121.922 22.3535C121.746 22.2233 121.518 22.1582 121.238 22.1582C120.978 22.1582 120.757 22.2233 120.574 22.3535C120.392 22.4772 120.255 22.6432 120.164 22.8516C120.079 23.0534 120.037 23.2747 120.037 23.5156ZM124.969 32.2656V31.5137C124.969 30.9798 125.086 30.4915 125.32 30.0488C125.561 29.6061 125.91 29.2513 126.365 28.9844C126.827 28.7174 127.394 28.584 128.064 28.584C128.742 28.584 129.308 28.7174 129.764 28.9844C130.219 29.2513 130.564 29.6061 130.799 30.0488C131.033 30.4915 131.15 30.9798 131.15 31.5137V32.2656C131.15 32.7995 131.033 33.2878 130.799 33.7305C130.571 34.1732 130.229 34.528 129.773 34.7949C129.318 35.0618 128.755 35.1953 128.084 35.1953C127.407 35.1953 126.837 35.0618 126.375 34.7949C125.913 34.528 125.561 34.1732 125.32 33.7305C125.086 33.2878 124.969 32.7995 124.969 32.2656ZM126.844 31.5137V32.2656C126.844 32.5 126.896 32.7214 127 32.9297C127.104 33.138 127.247 33.304 127.43 33.4277C127.618 33.5514 127.837 33.6133 128.084 33.6133C128.396 33.6133 128.641 33.5514 128.816 33.4277C128.992 33.304 129.113 33.138 129.178 32.9297C129.249 32.7214 129.285 32.5 129.285 32.2656V31.5137C129.285 31.2793 129.24 31.0612 129.148 30.8594C129.057 30.651 128.921 30.485 128.738 30.3613C128.562 30.2311 128.338 30.166 128.064 30.166C127.791 30.166 127.563 30.2311 127.381 30.3613C127.205 30.485 127.072 30.651 126.98 30.8594C126.889 31.0612 126.844 31.2793 126.844 31.5137ZM128.758 22.8125L121.814 33.9258L120.447 33.2031L127.391 22.0898L128.758 22.8125Z" fill="#2B7FFF"/>
<path d="M137.379 29.834V29.6094C137.379 28.8477 137.49 28.1413 137.711 27.4902C137.932 26.8327 138.251 26.263 138.668 25.7812C139.085 25.293 139.589 24.9154 140.182 24.6484C140.774 24.375 141.438 24.2383 142.174 24.2383C142.916 24.2383 143.583 24.375 144.176 24.6484C144.775 24.9154 145.283 25.293 145.699 25.7812C146.122 26.263 146.445 26.8327 146.666 27.4902C146.887 28.1413 146.998 28.8477 146.998 29.6094V29.834C146.998 30.5957 146.887 31.3021 146.666 31.9531C146.445 32.6042 146.122 33.1738 145.699 33.6621C145.283 34.1439 144.778 34.5215 144.186 34.7949C143.6 35.0618 142.936 35.1953 142.193 35.1953C141.451 35.1953 140.784 35.0618 140.191 34.7949C139.599 34.5215 139.091 34.1439 138.668 33.6621C138.251 33.1738 137.932 32.6042 137.711 31.9531C137.49 31.3021 137.379 30.5957 137.379 29.834ZM139.186 29.6094V29.834C139.186 30.3613 139.247 30.8594 139.371 31.3281C139.495 31.7904 139.68 32.2005 139.928 32.5586C140.182 32.9167 140.497 33.1999 140.875 33.4082C141.253 33.61 141.692 33.7109 142.193 33.7109C142.688 33.7109 143.121 33.61 143.492 33.4082C143.87 33.1999 144.182 32.9167 144.43 32.5586C144.677 32.2005 144.863 31.7904 144.986 31.3281C145.117 30.8594 145.182 30.3613 145.182 29.834V29.6094C145.182 29.0885 145.117 28.597 144.986 28.1348C144.863 27.666 144.674 27.2526 144.42 26.8945C144.173 26.5299 143.86 26.2435 143.482 26.0352C143.111 25.8268 142.675 25.7227 142.174 25.7227C141.679 25.7227 141.243 25.8268 140.865 26.0352C140.494 26.2435 140.182 26.5299 139.928 26.8945C139.68 27.2526 139.495 27.666 139.371 28.1348C139.247 28.597 139.186 29.0885 139.186 29.6094ZM150.82 26.6895V35H149.014V24.4336H150.723L150.82 26.6895ZM150.391 29.3164L149.639 29.2871C149.645 28.5645 149.753 27.8971 149.961 27.2852C150.169 26.6667 150.462 26.1296 150.84 25.6738C151.217 25.2181 151.667 24.8665 152.188 24.6191C152.715 24.3652 153.298 24.2383 153.936 24.2383C154.456 24.2383 154.925 24.3099 155.342 24.4531C155.758 24.5898 156.113 24.8112 156.406 25.1172C156.706 25.4232 156.934 25.8203 157.09 26.3086C157.246 26.7904 157.324 27.3796 157.324 28.0762V35H155.508V28.0566C155.508 27.5033 155.426 27.0605 155.264 26.7285C155.101 26.39 154.863 26.1458 154.551 25.9961C154.238 25.8398 153.854 25.7617 153.398 25.7617C152.949 25.7617 152.539 25.8561 152.168 26.0449C151.803 26.2337 151.488 26.4941 151.221 26.8262C150.96 27.1582 150.755 27.5391 150.605 27.9688C150.462 28.3919 150.391 28.8411 150.391 29.3164ZM112.914 42.041L108.207 55H106.283L111.703 40.7812H112.943L112.914 42.041ZM116.859 55L112.143 42.041L112.113 40.7812H113.354L118.793 55H116.859ZM116.615 49.7363V51.2793H108.627V49.7363H116.615ZM122.137 40V55H120.32V40H122.137ZM126.75 40V55H124.934V40H126.75ZM139.248 40.7812V55H137.393V40.7812H139.248ZM143.818 40.7812V42.3242H132.832V40.7812H143.818ZM147.367 44.4336V55H145.551V44.4336H147.367ZM145.414 41.6309C145.414 41.3379 145.502 41.0905 145.678 40.8887C145.86 40.6868 146.127 40.5859 146.479 40.5859C146.824 40.5859 147.087 40.6868 147.27 40.8887C147.458 41.0905 147.553 41.3379 147.553 41.6309C147.553 41.9108 147.458 42.1517 147.27 42.3535C147.087 42.5488 146.824 42.6465 146.479 42.6465C146.127 42.6465 145.86 42.5488 145.678 42.3535C145.502 42.1517 145.414 41.9108 145.414 41.6309ZM154.246 53.7109C154.676 53.7109 155.073 53.623 155.438 53.4473C155.802 53.2715 156.102 53.0306 156.336 52.7246C156.57 52.4121 156.704 52.0573 156.736 51.6602H158.455C158.423 52.2852 158.211 52.8678 157.82 53.4082C157.436 53.9421 156.932 54.375 156.307 54.707C155.682 55.0326 154.995 55.1953 154.246 55.1953C153.452 55.1953 152.758 55.0553 152.166 54.7754C151.58 54.4954 151.092 54.1113 150.701 53.623C150.317 53.1348 150.027 52.5749 149.832 51.9434C149.643 51.3053 149.549 50.6315 149.549 49.9219V49.5117C149.549 48.8021 149.643 48.1315 149.832 47.5C150.027 46.862 150.317 46.2988 150.701 45.8105C151.092 45.3223 151.58 44.9382 152.166 44.6582C152.758 44.3783 153.452 44.2383 154.246 44.2383C155.073 44.2383 155.796 44.4076 156.414 44.7461C157.033 45.0781 157.518 45.5339 157.869 46.1133C158.227 46.6862 158.423 47.3372 158.455 48.0664H156.736C156.704 47.6302 156.58 47.2363 156.365 46.8848C156.157 46.5332 155.87 46.2533 155.506 46.0449C155.148 45.8301 154.728 45.7227 154.246 45.7227C153.693 45.7227 153.227 45.8333 152.85 46.0547C152.479 46.2695 152.182 46.5625 151.961 46.9336C151.746 47.2982 151.59 47.7051 151.492 48.1543C151.401 48.597 151.355 49.0495 151.355 49.5117V49.9219C151.355 50.3841 151.401 50.8398 151.492 51.2891C151.583 51.7383 151.736 52.1452 151.951 52.5098C152.173 52.8743 152.469 53.1673 152.84 53.3887C153.217 53.6035 153.686 53.7109 154.246 53.7109ZM162.053 40V55H160.236V40H162.053ZM168.508 44.4336L163.898 49.3652L161.32 52.041L161.174 50.1172L163.02 47.9102L166.301 44.4336H168.508ZM166.857 55L163.088 49.9609L164.025 48.3496L168.986 55H166.857ZM174.312 55.1953C173.577 55.1953 172.91 55.0716 172.311 54.8242C171.718 54.5703 171.207 54.2155 170.777 53.7598C170.354 53.304 170.029 52.7637 169.801 52.1387C169.573 51.5137 169.459 50.8301 169.459 50.0879V49.6777C169.459 48.8184 169.586 48.0534 169.84 47.3828C170.094 46.7057 170.439 46.1328 170.875 45.6641C171.311 45.1953 171.806 44.8405 172.359 44.5996C172.913 44.3587 173.486 44.2383 174.078 44.2383C174.833 44.2383 175.484 44.3685 176.031 44.6289C176.585 44.8893 177.037 45.2539 177.389 45.7227C177.74 46.1849 178.001 46.7318 178.17 47.3633C178.339 47.9883 178.424 48.6719 178.424 49.4141V50.2246H170.533V48.75H176.617V48.6133C176.591 48.1445 176.493 47.6888 176.324 47.2461C176.161 46.8034 175.901 46.4388 175.543 46.1523C175.185 45.8659 174.697 45.7227 174.078 45.7227C173.668 45.7227 173.29 45.8105 172.945 45.9863C172.6 46.1556 172.304 46.4095 172.057 46.748C171.809 47.0866 171.617 47.5 171.48 47.9883C171.344 48.4766 171.275 49.0397 171.275 49.6777V50.0879C171.275 50.5892 171.344 51.0612 171.48 51.5039C171.624 51.9401 171.829 52.3242 172.096 52.6562C172.369 52.9883 172.698 53.2487 173.082 53.4375C173.473 53.6263 173.915 53.7207 174.41 53.7207C175.048 53.7207 175.589 53.5905 176.031 53.3301C176.474 53.0697 176.861 52.7214 177.193 52.2852L178.287 53.1543C178.059 53.4993 177.77 53.8281 177.418 54.1406C177.066 54.4531 176.633 54.707 176.119 54.9023C175.611 55.0977 175.009 55.1953 174.312 55.1953ZM184.707 44.4336V45.8203H178.994V44.4336H184.707ZM180.928 41.8652H182.734V52.3828C182.734 52.7409 182.79 53.0111 182.9 53.1934C183.011 53.3757 183.154 53.4961 183.33 53.5547C183.506 53.6133 183.695 53.6426 183.896 53.6426C184.046 53.6426 184.202 53.6296 184.365 53.6035C184.535 53.571 184.661 53.5449 184.746 53.5254L184.756 55C184.613 55.0456 184.424 55.0879 184.189 55.127C183.962 55.1725 183.685 55.1953 183.359 55.1953C182.917 55.1953 182.51 55.1074 182.139 54.9316C181.768 54.7559 181.471 54.4629 181.25 54.0527C181.035 53.6361 180.928 53.0762 180.928 52.373V41.8652ZM192.729 52.1973C192.729 51.9368 192.67 51.696 192.553 51.4746C192.442 51.2467 192.211 51.0417 191.859 50.8594C191.514 50.6706 190.993 50.5078 190.297 50.3711C189.711 50.2474 189.18 50.1009 188.705 49.9316C188.236 49.7624 187.836 49.5573 187.504 49.3164C187.178 49.0755 186.928 48.7923 186.752 48.4668C186.576 48.1413 186.488 47.7604 186.488 47.3242C186.488 46.9076 186.579 46.5137 186.762 46.1426C186.951 45.7715 187.214 45.4427 187.553 45.1562C187.898 44.8698 188.311 44.6452 188.793 44.4824C189.275 44.3197 189.812 44.2383 190.404 44.2383C191.251 44.2383 191.973 44.388 192.572 44.6875C193.171 44.987 193.63 45.3874 193.949 45.8887C194.268 46.3835 194.428 46.9336 194.428 47.5391H192.621C192.621 47.2461 192.533 46.9629 192.357 46.6895C192.188 46.4095 191.938 46.1784 191.605 45.9961C191.28 45.8138 190.88 45.7227 190.404 45.7227C189.903 45.7227 189.496 45.8008 189.184 45.957C188.878 46.1068 188.653 46.2988 188.51 46.5332C188.373 46.7676 188.305 47.015 188.305 47.2754C188.305 47.4707 188.337 47.6465 188.402 47.8027C188.474 47.9525 188.598 48.0924 188.773 48.2227C188.949 48.3464 189.197 48.4635 189.516 48.5742C189.835 48.6849 190.242 48.7956 190.736 48.9062C191.602 49.1016 192.315 49.3359 192.875 49.6094C193.435 49.8828 193.852 50.2181 194.125 50.6152C194.398 51.0124 194.535 51.4941 194.535 52.0605C194.535 52.5228 194.438 52.946 194.242 53.3301C194.053 53.7142 193.777 54.0462 193.412 54.3262C193.054 54.5996 192.624 54.8145 192.123 54.9707C191.628 55.1204 191.072 55.1953 190.453 55.1953C189.522 55.1953 188.734 55.0293 188.09 54.6973C187.445 54.3652 186.957 53.9355 186.625 53.4082C186.293 52.8809 186.127 52.3242 186.127 51.7383H187.943C187.969 52.2331 188.113 52.627 188.373 52.9199C188.633 53.2064 188.952 53.4115 189.33 53.5352C189.708 53.6523 190.082 53.7109 190.453 53.7109C190.948 53.7109 191.361 53.6458 191.693 53.5156C192.032 53.3854 192.289 53.2064 192.465 52.9785C192.641 52.7507 192.729 52.4902 192.729 52.1973Z" fill="black"/>
<defs>
<linearGradient id="paint0_linear_290_668" x1="0" y1="42" x2="269" y2="42" gradientUnits="userSpaceOnUse">
<stop stop-color="#EFF6FF"/>
<stop offset="1" stop-color="#CAE2FF"/>
</linearGradient>
</defs>
</svg>
